<?xml version="1.0" encoding="UTF-8" standalone="no"?>
<!-- Generator: Adobe Illustrator 25.0.1, SVG Export Plug-In . SVG Version: 6.00 Build 0)  -->

<svg
   xmlns:dc="http://purl.org/dc/elements/1.1/"
   xmlns:cc="http://creativecommons.org/ns#"
   xmlns:rdf="http://www.w3.org/1999/02/22-rdf-syntax-ns#"
   xmlns:svg="http://www.w3.org/2000/svg"
   xmlns="http://www.w3.org/2000/svg"
   xmlns:sodipodi="http://sodipodi.sourceforge.net/DTD/sodipodi-0.dtd"
   xmlns:inkscape="http://www.inkscape.org/namespaces/inkscape"
   version="1.1"
   id="Capa_1"
   x="0px"
   y="0px"
   viewBox="0 0 1920 1920"
   style="enable-background:new 0 0 1920 1920;"
   xml:space="preserve"
   sodipodi:docname="logo.svg"
   inkscape:version="0.92.4 (5da689c313, 2019-01-14)"><metadata
   id="metadata14"><rdf:RDF><cc:Work
       rdf:about=""><dc:format>image/svg+xml</dc:format><dc:type
         rdf:resource="http://purl.org/dc/dcmitype/StillImage" /><dc:title></dc:title></cc:Work></rdf:RDF></metadata><defs
   id="defs12">
	
	
</defs><sodipodi:namedview
   pagecolor="#ffffff"
   bordercolor="#666666"
   borderopacity="1"
   objecttolerance="10"
   gridtolerance="10"
   guidetolerance="10"
   inkscape:pageopacity="0"
   inkscape:pageshadow="2"
   inkscape:window-width="1366"
   inkscape:window-height="728"
   id="namedview10"
   showgrid="false"
   inkscape:zoom="0.17383042"
   inkscape:cx="1397.6309"
   inkscape:cy="918.31302"
   inkscape:window-x="0"
   inkscape:window-y="0"
   inkscape:window-maximized="1"
   inkscape:current-layer="Capa_1"
   showguides="true"
   inkscape:guide-bbox="true"><inkscape:grid
     type="xygrid"
     id="grid844" /><sodipodi:guide
     position="1000.9756,1737.3254"
     orientation="1,0"
     id="guide846"
     inkscape:locked="false" /><sodipodi:guide
     position="-776.61897,1000.9756"
     orientation="0,1"
     id="guide848"
     inkscape:locked="false" /></sodipodi:namedview>
<style
   type="text/css"
   id="style2">
	.st0{fill:#0099FF;}
	.st1{font-family:'Hero-Light';}
	.st2{font-size:428.9816px;}
	.st3{letter-spacing:-8.48;}
	.st4{fill:#9900CC;}
</style>
<g
   id="XMLID_1_"
   transform="translate(21.305402,206.9944)">
		<path
   style="fill:#0099ff"
   inkscape:connector-curvature="0"
   d="m 709.47,1106.96 c 1.16,-35.98 -47.48,-54.32 -72.54,-84.39 -22.52,-27.01 -43.61,-58 -26.59,-100.42 20.64,-0.48 30.94,13.06 32.32,36.01 0.86,14.15 32.16,59.46 53.93,48.98 16.62,-8.01 0.89,-10.91 -7.91,-42.88 -2.73,-9.94 -4.81,-22.63 -5.03,-39.24 -0.36,-27.58 -9.32,-57.85 -28.36,-80.3 -27.96,-32.92 -61.36,-51.53 -85.52,-89.96 5.38,6.11 10.58,12.39 15.8,18.66 -14.57,-91.66 15.15,-168.7 84.56,-258.92 36.35,-47.25 82.64,-90.52 137.33,-125.96 1.29,-0.83 2.53,-1.72 3.85,-2.55 69.32,-44.11 142.37,-69.53 211.36,-77.21 -102.19,-21.91 -227.55,2.19 -342.98,75.65 -2.66,1.69 -5.23,3.48 -7.87,5.21 -143.36,94.48 -230.75,240.68 -235.1,372.83 -0.95,28.73 2.04,56.78 9.23,83.5 14.79,74.41 40.1,135.4 82.82,186.54 28.1,33.62 103.02,92.36 123.52,98.24 31.93,9.15 53.28,6.12 33.84,-13.58 -10.06,-10.2 -22.78,-18.37 -22.48,-19.5 0.97,-3.51 45.29,25.57 45.82,9.29 z"
   class="st0"
   id="XMLID_10_" />
		<path
   style="fill:#9900cc"
   inkscape:connector-curvature="0"
   d="m 1227.23,359.81 c -1.17,35.99 47.47,54.32 72.53,84.39 22.52,27.01 43.61,58 26.58,100.42 -20.62,0.48 -30.92,-13.06 -32.3,-35.99 -0.87,-14.17 -32.16,-59.48 -53.95,-48.99 -16.61,8.01 -0.89,10.91 7.91,42.89 2.74,9.93 4.82,22.63 5.04,39.22 0.36,27.6 9.32,57.87 28.36,80.31 27.96,32.93 61.36,51.53 85.52,89.97 -5.39,-6.12 -10.59,-12.39 -15.83,-18.66 14.6,91.65 -15.13,168.68 -84.54,258.92 -36.35,47.23 -82.64,90.52 -137.32,125.94 -1.31,0.84 -2.54,1.73 -3.84,2.56 -69.32,44.11 -142.37,69.53 -211.36,77.22 102.17,21.92 227.54,-2.18 342.97,-75.66 2.65,-1.7 5.24,-3.48 7.85,-5.21 143.38,-94.48 230.77,-240.68 235.1,-372.83 0.96,-28.73 -2.04,-56.78 -9.25,-83.5 -14.77,-74.41 -40.07,-135.4 -82.8,-186.54 -28.09,-33.63 -103.02,-92.36 -123.53,-98.23 -31.92,-9.15 -53.27,-6.13 -33.83,13.58 10.06,10.2 22.77,18.37 22.47,19.49 -0.94,3.5 -45.26,-25.58 -45.78,-9.3 z"
   class="st4"
   id="XMLID_9_" />
	</g>
</svg>