<svg id="Capa_1" data-name="Capa 1" xmlns="http://www.w3.org/2000/svg" viewBox="0 0 480 480"><defs><style>.cls-1{fill:#fff;}</style></defs><g id="Outline"><path class="cls-1" d="M440,336H421.15A71.88,71.88,0,0,0,448,280V261.6A55.77,55.77,0,0,0,488,208V192a56.07,56.07,0,0,0-56-56h-8v-9.3A27.92,27.92,0,0,0,416,72a12,12,0,1,1,12-12,8,8,0,0,0,16,0,28,28,0,0,0-20-26.7V24a8,8,0,0,0-16,0v9.3A27.92,27.92,0,0,0,416,88a12,12,0,1,1-12,12,8,8,0,0,0-16,0,28,28,0,0,0,20,26.7V136H272a8,8,0,0,0-8,8v64a55.79,55.79,0,0,0,46.67,55.2,7.87,7.87,0,0,0,6.5-1.78,8,8,0,0,0,2.83-6.14V205.5A176.37,176.37,0,0,0,398.65,224H440a8,8,0,0,0,0-16H398.65a160.4,160.4,0,0,1-82.53-22.86,8,8,0,0,0-11,2.74A8.09,8.09,0,0,0,304,192v52.64A39.82,39.82,0,0,1,280,208V152H432a40.05,40.05,0,0,1,40,40v16a39.84,39.84,0,0,1-33.33,39.39,8,8,0,0,0-6.67,7.89V280a56,56,0,0,1-111.5,7,8,8,0,1,0-15.88,2h0a71.74,71.74,0,0,0,26.32,47H312a56.07,56.07,0,0,0-56,56v96a8,8,0,0,0,16,0V392a40.05,40.05,0,0,1,40-40h32v16a16,16,0,0,0,7.26,13.38l-7.2,57.6a7.9,7.9,0,0,0,1.08,5.11l24,40a8,8,0,0,0,13.72,0l24-40a7.9,7.9,0,0,0,1.08-5.11l-7.2-57.6A16,16,0,0,0,408,368V352h32a40.05,40.05,0,0,1,40,40v96a8,8,0,0,0,16,0V392A56.07,56.07,0,0,0,440,336ZM376,464.45l-15.72-26.19L367.06,384h17.88l6.78,54.26ZM392,368H360V352h32Z" transform="translate(-16 -16)"/><path class="cls-1" d="M312,400a8,8,0,0,0-8,8v80a8,8,0,0,0,16,0V408A8,8,0,0,0,312,400Z" transform="translate(-16 -16)"/><path class="cls-1" d="M440,400a8,8,0,0,0-8,8v80a8,8,0,0,0,16,0V408A8,8,0,0,0,440,400Z" transform="translate(-16 -16)"/><circle class="cls-1" cx="336" cy="240" r="8"/><circle class="cls-1" cx="384" cy="240" r="8"/><path class="cls-1" d="M386.34,290.34a14.62,14.62,0,0,1-20.68,0,8,8,0,0,0-11.32,11.32,30.67,30.67,0,0,0,43.32,0,8,8,0,0,0-11.32-11.32Z" transform="translate(-16 -16)"/><path class="cls-1" d="M80,168H32a8,8,0,0,0-8,8v48a8,8,0,0,0,8,8H80a8,8,0,0,0,8-8V176A8,8,0,0,0,80,168Zm-8,48H40V184H72Z" transform="translate(-16 -16)"/><path class="cls-1" d="M160,136H112a8,8,0,0,0-8,8v80a8,8,0,0,0,8,8h48a8,8,0,0,0,8-8V144A8,8,0,0,0,160,136Zm-8,80H120V152h32Z" transform="translate(-16 -16)"/><path class="cls-1" d="M240,104H192a8,8,0,0,0-8,8V224a8,8,0,0,0,8,8h48a8,8,0,0,0,8-8V112A8,8,0,0,0,240,104Zm-8,112H200V120h32Z" transform="translate(-16 -16)"/><path class="cls-1" d="M256,24a8,8,0,0,0-8-8H208a8,8,0,0,0,0,16h20.28A298.88,298.88,0,0,1,24,112a8,8,0,0,0,0,16A314.73,314.73,0,0,0,240,42.92V64a8,8,0,0,0,16,0Z" transform="translate(-16 -16)"/><path class="cls-1" d="M148.8,307.77A23.76,23.76,0,0,0,152,296a24,24,0,0,0-48,0,23.76,23.76,0,0,0,3.2,11.77A23.92,23.92,0,0,0,96,328v16a8,8,0,0,0,16,0V328a8,8,0,0,1,8-8h16a8,8,0,0,1,8,8v16a8,8,0,0,0,16,0V328A23.92,23.92,0,0,0,148.8,307.77ZM128,288a8,8,0,1,1-8,8A8,8,0,0,1,128,288Z" transform="translate(-16 -16)"/><path class="cls-1" d="M148.8,451.77A23.76,23.76,0,0,0,152,440a24,24,0,0,0-48,0,23.76,23.76,0,0,0,3.2,11.77A23.92,23.92,0,0,0,96,472v16a8,8,0,0,0,16,0V472a8,8,0,0,1,8-8h16a8,8,0,0,1,8,8v16a8,8,0,0,0,16,0V472A23.92,23.92,0,0,0,148.8,451.77ZM128,432a8,8,0,1,1-8,8A8,8,0,0,1,128,432Z" transform="translate(-16 -16)"/><path class="cls-1" d="M68.8,379.77A23.76,23.76,0,0,0,72,368a24,24,0,0,0-48,0,23.76,23.76,0,0,0,3.2,11.77A23.92,23.92,0,0,0,16,400v16a8,8,0,0,0,16,0V400a8,8,0,0,1,8-8H56a8,8,0,0,1,8,8v16a8,8,0,0,0,16,0V400A23.92,23.92,0,0,0,68.8,379.77ZM48,360a8,8,0,1,1-8,8A8,8,0,0,1,48,360Z" transform="translate(-16 -16)"/><path class="cls-1" d="M228.8,379.77A23.76,23.76,0,0,0,232,368a24,24,0,0,0-48,0,23.76,23.76,0,0,0,3.2,11.77A23.92,23.92,0,0,0,176,400v16a8,8,0,0,0,16,0V400a8,8,0,0,1,8-8h16a8,8,0,0,1,8,8v16a8,8,0,0,0,16,0V400A23.92,23.92,0,0,0,228.8,379.77ZM208,360a8,8,0,1,1-8,8A8,8,0,0,1,208,360Z" transform="translate(-16 -16)"/><path class="cls-1" d="M200,320a8,8,0,0,0,16,0,32,32,0,0,0-32-32,8,8,0,0,0,0,16A16,16,0,0,1,200,320Z" transform="translate(-16 -16)"/><path class="cls-1" d="M72,288a32,32,0,0,0-32,32,8,8,0,0,0,16,0,16,16,0,0,1,16-16,8,8,0,0,0,0-16Z" transform="translate(-16 -16)"/><path class="cls-1" d="M208,440a8,8,0,0,0-8,8,16,16,0,0,1-16,16,8,8,0,0,0,0,16,32,32,0,0,0,32-32A8,8,0,0,0,208,440Z" transform="translate(-16 -16)"/><path class="cls-1" d="M72,464a16,16,0,0,1-16-16,8,8,0,0,0-16,0,32,32,0,0,0,32,32,8,8,0,0,0,0-16Z" transform="translate(-16 -16)"/><path class="cls-1" d="M464,88h16a8,8,0,0,0,0-16H464a8,8,0,0,0,0,16Z" transform="translate(-16 -16)"/><path class="cls-1" d="M352,88h16a8,8,0,0,0,0-16H352a8,8,0,0,0,0,16Z" transform="translate(-16 -16)"/></g></svg>